HIERARCHY
ROOT Hips
{
	OFFSET 0.00000 0.00000 0.00000
	CHANNELS 6 Xposition Yposition Zposition Zrotation Yrotation Xrotation 
	JOINT LHipJoint
	{
		OFFSET 0 0 0
		CHANNELS 3 Zrotation Yrotation Xrotation
		JOINT LeftHip
		{
			OFFSET 1.17584 -1.63585 1.00361
			CHANNELS 3 Zrotation Yrotation Xrotation
			JOINT LeftKnee
			{
				OFFSET 2.23889 -6.15131 0.00000
				CHANNELS 3 Zrotation Yrotation Xrotation
				JOINT LeftAnkle
				{
					OFFSET 2.65161 -7.28525 0.00000
					CHANNELS 3 Zrotation Yrotation Xrotation
					JOINT LeftToe
					{
						OFFSET 0.24898 -0.68407 1.57235
						CHANNELS 3 Zrotation Yrotation Xrotation
						End Site
						{
							OFFSET 0.00000 -0.00000 0.85838
						}
					}
				}
			}
		}
	}
	JOINT RHipJoint
	{
		OFFSET 0 0 0
		CHANNELS 3 Zrotation Yrotation Xrotation
		JOINT RightHip
		{
			OFFSET -1.15592 -1.63585 1.00361
			CHANNELS 3 Zrotation Yrotation Xrotation
			JOINT RightKnee
			{
				OFFSET -2.34071 -6.43104 0.00000
				CHANNELS 3 Zrotation Yrotation Xrotation
				JOINT RightAnkle
				{
					OFFSET -2.59113 -7.11908 0.00000
					CHANNELS 3 Zrotation Yrotation Xrotation
					JOINT RightToe
					{
						OFFSET -0.17867 -0.49089 1.70981
						CHANNELS 3 Zrotation Yrotation Xrotation
						End Site
						{
							OFFSET -0.00000 -0.00000 0.89861
						}
					}
				}
			}
		}
	}
	JOINT lowerback
	{
		OFFSET 0 0 0
		CHANNELS 3 Zrotation Yrotation Xrotation
		JOINT Chest
		{
			OFFSET -0.02255 1.90764 -0.16605
			CHANNELS 3 Zrotation Yrotation Xrotation
			JOINT Chest2
			{
				OFFSET -0.00365 1.92150 -0.04898
				CHANNELS 3 Zrotation Yrotation Xrotation
				JOINT lowerneck
				{
					OFFSET 0 0 0
					CHANNELS 3 Zrotation Yrotation Xrotation
					JOINT Neck
					{
						OFFSET 0.00372 1.59170 0.08694
						CHANNELS 3 Zrotation Yrotation Xrotation
						JOINT Head
						{
							OFFSET 0.12558 1.58643 -0.08078
							CHANNELS 3 Zrotation Yrotation Xrotation
							End Site
							{
								OFFSET 0.04211 1.60835 -0.03803
							}
						}
					}
				}
				JOINT LeftCollar
				{
					OFFSET 0 0 0
					CHANNELS 3 Zrotation Yrotation Xrotation
					JOINT LeftShoulder
					{
						OFFSET 3.69324 0.96316 0.19077
CHANNELS 3 Zrotation Xrotation Yrotation
						JOINT LeftElbow
						{
OFFSET 0 -4.877960 -0.000000
CHANNELS 3 Zrotation Xrotation Yrotation
							JOINT LeftWrist
							{
OFFSET 0 -3.231690 0.000000
CHANNELS 3 Zrotation Xrotation Yrotation
								JOINT lhand
								{
									OFFSET 0 0 0
CHANNELS 3 Zrotation Xrotation Yrotation
									JOINT LFingers
									{
OFFSET 0 -0.731320 0.000000
CHANNELS 3 Zrotation Xrotation Yrotation
										End Site
										{
OFFSET 0 -0.589610 0.000000
										}
									}
								}
								JOINT LThumb
								{
OFFSET 0 0.000000 0.000000
CHANNELS 3 Zrotation Xrotation Yrotation
									End Site
									{
OFFSET 0 -0.598610 0.598610
									}
								}
							}
						}
					}
				}
				JOINT RightCollar
				{
					OFFSET 0 0 0
					CHANNELS 3 Zrotation Yrotation Xrotation
					JOINT RightShoulder
					{
						OFFSET -3.66103 0.75145 0.08281
CHANNELS 3 Zrotation Xrotation Yrotation
						JOINT RightElbow
						{
OFFSET 0 -4.914300 0.000000
CHANNELS 3 Zrotation Xrotation Yrotation
							JOINT RightWrist
							{
OFFSET 0 -3.290930 0.000000
CHANNELS 3 Zrotation Xrotation Yrotation
								JOINT rhand
								{
									OFFSET 0 0 0
CHANNELS 3 Zrotation Xrotation Yrotation
									JOINT RFingers
									{
OFFSET 0 -0.545120 0.000000
CHANNELS 3 Zrotation Xrotation Yrotation
										End Site
										{
OFFSET 0 -0.439490 0.000000
										}
									}
								}
								JOINT RThumb
								{
OFFSET 0 0.000000 0.000000
CHANNELS 3 Zrotation Xrotation Yrotation
									End Site
									{
OFFSET 0 -0.446200 0.446200
									}
								}
							}
						}
					}
				}
			}
		}
	}
}
MOTION
Frames: 9
Frame Time: 0.008333333333333333
1.713810 14.262158 -1.150200 -14.221234 -88.192030 11.056058 0.000000 0.000000 0.000000 -2.664947 7.169552 -43.540484 13.747007 19.035511 71.430394 2.270023 -13.388860 -27.313104 0.821383 -5.781360 -16.151733 0.000000 0.000000 0.000000 0.491145 -8.349224 -40.201629 -12.661686 -18.656564 68.071326 -1.875464 9.688862 -24.577520 -0.918335 6.105731 -17.091440 -1.166497 0.365063 10.198995 -0.402146 0.217150 4.315290 0.217867 0.035912 -1.237466 -3.416143 -2.100159 -7.719018 10.154165 -3.244670 5.015519 3.475080 -1.322148 2.980921 0.000000 0.000000 0.000000 12.684480 -54.464558 -31.106097 73.101326 -58.893029 45.419707 -14.162680 31.823464 15.776931 0.000000 0.000000 0.000000 -7.125000 0.000000 0.000000 -27.096574 14.658533 -22.022251 0.000000 0.000000 0.000000 -16.260208 -47.602269 26.251125 -88.372717 -59.989963 -58.590828 -2.925060 8.509528 51.879468 0.000000 0.000000 0.000000 7.125000 0.000000 0.000000 67.818650 72.007725 -49.428867
1.715030 14.262873 -1.149401 -12.640702 -88.194891 9.479775 0.000000 0.000000 0.000000 -2.728641 7.144857 -43.529251 13.743221 19.034333 71.418783 2.253868 -13.459580 -27.227113 0.787348 -5.662680 -15.809198 0.000000 0.000000 0.000000 0.433635 -8.366473 -40.206888 -12.657857 -18.655091 68.059378 -1.873991 9.690587 -24.567760 -0.923005 6.120792 -17.135319 -1.224091 0.364390 10.186584 -0.405638 0.211050 4.314869 0.247400 0.032336 -1.231197 -3.439029 -2.097677 -7.714054 10.175494 -3.241010 5.019558 3.485639 -1.320045 2.981762 0.000000 0.000000 0.000000 12.694240 -54.450675 -31.088091 73.140577 -58.898288 45.453321 -14.247241 31.821192 15.777394 0.000000 0.000000 0.000000 -7.125000 0.000000 0.000000 -27.145123 14.654200 -22.076353 0.000000 0.000000 0.000000 -16.316624 -47.600208 26.242374 -88.381552 -59.990089 -58.598485 -2.895779 8.491985 51.879805 0.000000 0.000000 0.000000 7.125000 0.000000 0.000000 67.836951 71.997376 -49.433200
1.716271 14.263562 -1.148767 -11.266824 -88.197809 8.110116 0.000000 0.000000 0.000000 -2.783894 7.123966 -43.519716 13.739626 19.033212 71.407762 2.238406 -13.531366 -27.145340 0.755906 -5.552814 -15.492167 0.000000 0.000000 0.000000 0.384716 -8.379250 -40.212059 -12.653744 -18.653515 68.046535 -1.872648 9.685357 -24.558605 -0.928735 6.139217 -17.188989 -1.275024 0.364116 10.177325 -0.408850 0.206119 4.312042 0.273326 0.029469 -1.229147 -3.461056 -2.096540 -7.701880 10.199194 -3.239316 5.020543 3.496722 -1.319121 2.980678 0.000000 0.000000 0.000000 12.703421 -54.432165 -31.073257 73.178079 -58.903309 45.485434 -14.319966 31.820276 15.779042 0.000000 0.000000 0.000000 -7.125000 0.000000 0.000000 -27.186670 14.649329 -22.123433 0.000000 0.000000 0.000000 -16.367259 -47.592195 26.235005 -88.393699 -59.990252 -58.609004 -2.869179 8.476429 51.875810 0.000000 0.000000 0.000000 7.125000 0.000000 0.000000 67.841185 71.986447 -49.424243
1.717659 14.264067 -1.149314 -11.366194 -88.201132 8.213482 0.000000 0.000000 0.000000 -2.778972 7.130192 -43.522282 13.737396 19.032497 71.400946 2.227889 -13.610752 -27.093635 0.742948 -5.505780 -15.356953 0.000000 0.000000 0.000000 0.397043 -8.360151 -40.216603 -12.647602 -18.651202 68.027309 -1.872228 9.630539 -24.553767 -0.942030 6.181623 -17.312465 -1.278474 0.366682 10.190535 -0.410070 0.209527 4.292058 0.273536 0.031657 -1.257165 -3.476959 -2.104996 -7.638312 10.239792 -3.251643 4.999761 3.511530 -1.326610 2.965870 0.000000 0.000000 0.000000 12.708469 -54.380672 -31.081040 73.203111 -58.906632 45.506848 -14.308313 31.829027 15.789139 0.000000 0.000000 0.000000 -7.125000 0.000000 0.000000 -27.178298 14.640620 -22.120446 0.000000 0.000000 0.000000 -16.376683 -47.541753 26.237487 -88.429459 -59.990672 -58.639925 -2.861690 8.475041 51.840934 0.000000 0.000000 0.000000 7.125000 0.000000 0.000000 67.745139 71.971386 -49.320540
1.719047 14.264572 -1.149861 -11.465563 -88.204456 8.316848 0.000000 0.000000 0.000000 -2.774050 7.136419 -43.524848 13.735166 19.031782 71.394131 2.217371 -13.690138 -27.041931 0.729991 -5.458745 -15.221740 0.000000 0.000000 0.000000 0.409369 -8.341051 -40.221146 -12.641460 -18.648888 68.008083 -1.871807 9.575722 -24.548929 -0.955324 6.224030 -17.435941 -1.281924 0.369248 10.203745 -0.411290 0.212935 4.272075 0.273747 0.033844 -1.285184 -3.492861 -2.113452 -7.574744 10.280389 -3.263969 4.978978 3.526339 -1.334098 2.951061 0.000000 0.000000 0.000000 12.713518 -54.329178 -31.088823 73.228143 -58.909956 45.528262 -14.296660 31.837778 15.799236 0.000000 0.000000 0.000000 -7.125000 0.000000 0.000000 -27.169926 14.631912 -22.117459 0.000000 0.000000 0.000000 -16.386107 -47.491311 26.239970 -88.465218 -59.991093 -58.670847 -2.854202 8.473653 51.806057 0.000000 0.000000 0.000000 7.125000 0.000000 0.000000 67.649093 71.956325 -49.216837
1.720530 14.265296 -1.149812 -12.387927 -88.207152 9.237183 0.000000 0.000000 0.000000 -2.743925 7.154446 -43.529643 13.733596 19.031255 71.389261 2.217148 -13.709892 -27.043112 0.727830 -5.450974 -15.199421 0.000000 0.000000 0.000000 0.445016 -8.315737 -40.217655 -12.634753 -18.646323 67.987068 -1.869880 9.548775 -24.535365 -0.959045 6.235867 -17.470407 -1.256938 0.369429 10.212906 -0.403220 0.215589 4.268287 0.267711 0.035467 -1.294089 -3.490560 -2.126491 -7.553013 10.275039 -3.281349 4.976368 3.523540 -1.343501 2.947771 0.000000 0.000000 0.000000 12.713199 -54.318517 -31.089513 73.205374 -58.906908 45.508780 -14.249289 31.834759 15.805064 0.000000 0.000000 0.000000 -7.125000 0.000000 0.000000 -27.141750 14.628790 -22.089834 0.000000 0.000000 0.000000 -16.385456 -47.487006 26.235861 -88.440090 -59.990792 -58.649103 -2.793672 8.444927 51.762299 0.000000 0.000000 0.000000 7.125000 0.000000 0.000000 67.559700 71.919043 -49.093361
1.722044 14.266096 -1.149559 -13.590459 -88.209634 10.435634 0.000000 0.000000 0.000000 -2.705221 7.176491 -43.535196 13.732249 19.030792 71.385054 2.220430 -13.709345 -27.062296 0.729344 -5.456570 -15.215534 0.000000 0.000000 0.000000 0.488600 -8.288307 -40.211429 -12.627853 -18.643672 67.965444 -1.867440 9.531316 -24.518832 -0.959508 6.237297 -17.474572 -1.222272 0.368798 10.220689 -0.391987 0.217987 4.270012 0.259550 0.036897 -1.296487 -3.482062 -2.141089 -7.545525 10.254046 -3.300449 4.979944 3.514748 -1.353556 2.948402 0.000000 0.000000 0.000000 12.711054 -54.321756 -31.087788 73.166333 -58.901691 45.475376 -14.189760 31.827733 15.809439 0.000000 0.000000 0.000000 -7.125000 0.000000 0.000000 -27.106832 14.627570 -22.053822 0.000000 0.000000 0.000000 -16.381375 -47.498407 26.229508 -88.394233 -59.990245 -58.609431 -2.715085 8.406896 51.715517 0.000000 0.000000 0.000000 7.125000 0.000000 0.000000 67.472573 71.874196 -48.963154
1.723683 14.266895 -1.148996 -14.854552 -88.208141 11.690848 0.000000 0.000000 0.000000 -2.663659 7.190338 -43.536200 13.731027 19.030391 71.381282 2.226708 -13.702681 -27.098201 0.734740 -5.476169 -15.271905 0.000000 0.000000 0.000000 0.533132 -8.268780 -40.198200 -12.621093 -18.641068 67.944317 -1.865232 9.528078 -24.504208 -0.958620 6.234474 -17.466347 -1.178198 0.366149 10.228814 -0.382385 0.218320 4.279624 0.244650 0.037179 -1.290843 -3.482243 -2.153607 -7.560720 10.247088 -3.317484 4.991842 3.511638 -1.361468 2.955554 0.000000 0.000000 0.000000 12.718829 -54.338969 -31.079154 73.128938 -58.896692 45.443370 -14.153116 31.816251 15.815228 0.000000 0.000000 0.000000 -7.125000 0.000000 0.000000 -27.084816 14.623990 -22.032994 0.000000 0.000000 0.000000 -16.379933 -47.523641 26.220376 -88.337353 -59.989543 -58.560180 -2.642925 8.372311 51.667276 0.000000 0.000000 0.000000 7.125000 0.000000 0.000000 67.378087 71.831026 -48.828398
1.725534 14.267694 -1.147903 -16.223892 -88.199854 13.043108 0.000000 0.000000 0.000000 -2.617214 7.190170 -43.529427 13.730018 19.030097 71.378253 2.238109 -13.685558 -27.162695 0.746772 -5.519712 -15.397106 0.000000 0.000000 0.000000 0.579283 -8.262764 -40.173000 -12.614573 -18.638544 67.924039 -1.863423 9.549156 -24.492849 -0.955423 6.224377 -17.436940 -1.118038 0.360049 10.237522 -0.375569 0.215123 4.302720 0.218230 0.035496 -1.271448 -3.497262 -2.162568 -7.614696 10.264126 -3.330988 5.017967 3.518243 -1.365717 2.973854 0.000000 0.000000 0.000000 12.743566 -54.380071 -31.058708 73.094356 -58.892064 45.413752 -14.155598 31.797151 15.823431 0.000000 0.000000 0.000000 -7.125000 0.000000 0.000000 -27.084858 14.616375 -22.038127 0.000000 0.000000 0.000000 -16.383005 -47.572527 26.206493 -88.261627 -59.988575 -58.494550 -2.581755 8.343620 51.616539 0.000000 0.000000 0.000000 7.125000 0.000000 0.000000 67.271018 71.790723 -48.685865
